<svg width="36" height="41" viewBox="0 0 36 41" fill="none" xmlns="http://www.w3.org/2000/svg">
<path d="M26.6153 31.6152C27.4486 31.6152 28.1569 31.3235 28.7403 30.7402C29.3236 30.1569 29.6153 29.4485 29.6153 28.6152C29.6153 27.7819 29.3236 27.0735 28.7403 26.4902C28.1569 25.9069 27.4486 25.6152 26.6153 25.6152C25.7819 25.6152 25.0736 25.9069 24.4903 26.4902C23.9069 27.0735 23.6153 27.7819 23.6153 28.6152C23.6153 29.4485 23.9069 30.1569 24.4903 30.7402C25.0736 31.3235 25.7819 31.6152 26.6153 31.6152ZM26.6153 37.6152C27.6153 37.6152 28.5486 37.3819 29.4153 36.9152C30.2819 36.4485 30.9986 35.7985 31.5653 34.9652C30.7986 34.4985 29.9986 34.1569 29.1653 33.9402C28.3319 33.7235 27.482 33.6152 26.6153 33.6152C25.7486 33.6152 24.8986 33.7235 24.0653 33.9402C23.2319 34.1569 22.4319 34.4985 21.6653 34.9652C22.232 35.7985 22.9486 36.4485 23.8153 36.9152C24.6819 37.3819 25.6153 37.6152 26.6153 37.6152ZM8.99993 12.9999H20.9999V8.99993C20.9999 7.33326 20.4166 5.91659 19.2499 4.74993C18.0833 3.58326 16.6666 2.99993 14.9999 2.99993C13.3333 2.99993 11.9166 3.58326 10.7499 4.74993C9.58326 5.91659 8.99993 7.33326 8.99993 8.99993V12.9999ZM15.923 38.9998H3.61536C2.60511 38.9998 1.74998 38.6498 1.04999 37.9498C0.349997 37.2498 0 36.3947 0 35.3844V16.6153C0 15.605 0.349997 14.7499 1.04999 14.0499C1.74998 13.3499 2.60511 12.9999 3.61536 12.9999H6V8.99993C6 6.50251 6.87563 4.37817 8.6269 2.6269C10.3782 0.875634 12.5025 0 14.9999 0C17.4973 0 19.6217 0.875634 21.373 2.6269C23.1242 4.37817 23.9999 6.50251 23.9999 8.99993V12.9999H26.3845C27.3947 12.9999 28.2499 13.3499 28.9499 14.0499C29.6499 14.7499 29.9999 15.605 29.9999 16.6153V19.0999C29.5665 18.9512 29.1018 18.8396 28.6057 18.7653C28.1095 18.6909 27.5743 18.6537 26.9999 18.6537V16.6153C26.9999 16.4358 26.9422 16.2883 26.8268 16.1729C26.7114 16.0576 26.564 15.9999 26.3845 15.9999H3.61536C3.43586 15.9999 3.28841 16.0576 3.17302 16.1729C3.05762 16.2883 2.99993 16.4358 2.99993 16.6153V35.3844C2.99993 35.5639 3.05762 35.7114 3.17302 35.8268C3.28841 35.9422 3.43586 35.9999 3.61536 35.9999H14.4461C14.6359 36.5947 14.8384 37.1165 15.0538 37.5652C15.2692 38.0139 15.5589 38.4921 15.923 38.9998ZM26.6153 40.6151C24.1179 40.6151 21.9935 39.7395 20.2423 37.9882C18.491 36.237 17.6154 34.1126 17.6154 31.6152C17.6154 29.1178 18.491 26.9935 20.2423 25.2422C21.9935 23.4909 24.1179 22.6153 26.6153 22.6153C29.1127 22.6153 31.237 23.4909 32.9883 25.2422C34.7396 26.9935 35.6152 29.1178 35.6152 31.6152C35.6152 34.1126 34.7396 36.237 32.9883 37.9882C31.237 39.7395 29.1127 40.6151 26.6153 40.6151ZM2.99993 21.7695C2.99993 21.9362 2.99993 22.7112 2.99993 24.0945C2.99993 25.4778 2.99993 26.9931 2.99993 28.6405C2.99993 30.2878 2.99993 31.8448 2.99993 33.3115C2.99993 34.7781 2.99993 35.6742 2.99993 35.9999C2.99993 35.9999 2.99993 35.9422 2.99993 35.8268C2.99993 35.7114 2.99993 35.5639 2.99993 35.3844V16.6153C2.99993 16.4358 2.99993 16.2883 2.99993 16.1729C2.99993 16.0576 2.99993 15.9999 2.99993 15.9999C2.99993 15.9999 2.99993 16.0576 2.99993 16.1729C2.99993 16.2883 2.99993 16.4358 2.99993 16.6153V17.423C2.99993 17.3076 2.99993 17.6987 2.99993 18.5962C2.99993 19.4937 2.99993 20.5515 2.99993 21.7695Z" fill="#F2CA50"/>
</svg>
