<svg width="37" height="30" viewBox="0 0 37 30" fill="none" xmlns="http://www.w3.org/2000/svg">
<path d="M18.4638 19.0769C19.5969 19.0769 20.5592 18.6803 21.3509 17.8871C22.1426 17.0939 22.5384 16.1308 22.5384 14.9977C22.5384 13.8646 22.1418 12.9022 21.3486 12.1106C20.5555 11.3189 19.5923 10.9231 18.4592 10.9231C17.3261 10.9231 16.3638 11.3197 15.5721 12.1128C14.7804 12.906 14.3846 13.8691 14.3846 15.0022C14.3846 16.1353 14.7812 17.0977 15.5744 17.8894C16.3675 18.681 17.3307 19.0769 18.4638 19.0769ZM18.4615 17.7C17.7115 17.7 17.074 17.4375 16.549 16.9125C16.024 16.3875 15.7615 15.75 15.7615 15C15.7615 14.25 16.024 13.6125 16.549 13.0875C17.074 12.5625 17.7115 12.3 18.4615 12.3C19.2115 12.3 19.849 12.5625 20.374 13.0875C20.899 13.6125 21.1615 14.25 21.1615 15C21.1615 15.75 20.899 16.3875 20.374 16.9125C19.849 17.4375 19.2115 17.7 18.4615 17.7ZM18.4629 21.9999C16.1632 21.9999 14.0679 21.3656 12.1769 20.0971C10.2859 18.8285 8.89359 17.1294 8 15C8.89359 12.8705 10.2854 11.1715 12.1755 9.90287C14.0656 8.63429 16.1605 8 18.4601 8C20.7597 8 22.8551 8.63429 24.7461 9.90287C26.6371 11.1715 28.0294 12.8705 28.923 15C28.0294 17.1294 26.6376 18.8285 24.7475 20.0971C22.8574 21.3656 20.7625 21.9999 18.4629 21.9999ZM18.4615 20.5C20.3448 20.5 22.074 20.0041 23.649 19.0125C25.224 18.0208 26.4282 16.6833 27.2615 15C26.4282 13.3166 25.224 11.9791 23.649 10.9875C22.074 9.9958 20.3448 9.49996 18.4615 9.49996C16.5782 9.49996 14.849 9.9958 13.274 10.9875C11.699 11.9791 10.4948 13.3166 9.6615 15C10.4948 16.6833 11.699 18.0208 13.274 19.0125C14.849 20.0041 16.5782 20.5 18.4615 20.5Z" fill="#D0C5AF"/>
</svg>
