<svg width="64" height="64" viewBox="0 0 64 64" fill="none" xmlns="http://www.w3.org/2000/svg">
<rect width="64" height="64" rx="32" fill="#F2CA50" fill-opacity="0.05"/>
<rect x="0.5" y="0.5" width="63" height="63" rx="31.5" stroke="#F2CA50" stroke-opacity="0.2"/>
<path d="M32.002 43.8749C30.3596 43.8749 28.8181 43.5648 27.3774 42.9446C25.9367 42.3244 24.6804 41.4807 23.6085 40.4135C22.5367 39.3463 21.6881 38.0913 21.0629 36.6486C20.4376 35.2059 20.125 33.6643 20.125 32.024H22C22 33.399 22.2624 34.6939 22.7872 35.9086C23.3121 37.1234 24.0276 38.1838 24.9338 39.0901C25.8401 39.9963 26.9013 40.7131 28.1175 41.2403C29.3337 41.7676 30.6278 42.0312 32 42.0312C34.7916 42.0312 37.1562 41.0625 39.0937 39.125C41.0312 37.1875 42 34.8229 42 32.0312C42 29.2395 41.0312 26.875 39.0937 24.9375C37.1562 23 34.7916 22.0312 32 22.0312C30.0576 22.0312 28.3072 22.5244 26.7487 23.5108C25.1902 24.4972 23.9935 25.7965 23.1586 27.4086H26.7836V29.2836H20.125V22.625H22V25.738C23.0256 24.0489 24.413 22.6911 26.1622 21.6647C27.9114 20.6382 29.8573 20.125 32 20.125C33.6427 20.125 35.1864 20.4367 36.6312 21.06C38.076 21.6833 39.3327 22.5293 40.4015 23.5978C41.4702 24.6664 42.3163 25.9229 42.9398 27.3674C43.5632 28.812 43.8749 30.3555 43.8749 31.9979C43.8749 33.6403 43.5632 35.1841 42.9399 36.6292C42.3166 38.0744 41.4707 39.3315 40.4021 40.4006C39.3335 41.4696 38.077 42.3159 36.6325 42.9395C35.1879 43.5631 33.6445 43.8749 32.002 43.8749ZM29.5 36.8557C29.1662 36.8557 28.8865 36.7428 28.6607 36.5171C28.435 36.2913 28.3221 36.0116 28.3221 35.6778V31.9278C28.3221 31.5941 28.4419 31.3144 28.6814 31.0886C28.921 30.8628 29.2179 30.75 29.5721 30.75V29.4278C29.5721 28.7602 29.8089 28.1886 30.2824 27.7131C30.756 27.2377 31.3285 27 32 27C32.6714 27 33.2439 27.2377 33.7175 27.7131C34.1911 28.1886 34.4278 28.7602 34.4278 29.4278V30.75C34.782 30.75 35.0789 30.8628 35.3185 31.0886C35.558 31.3144 35.6778 31.5941 35.6778 31.9278V35.6778C35.6778 36.0116 35.565 36.2913 35.3392 36.5171C35.1134 36.7428 34.8337 36.8557 34.5 36.8557H29.5ZM30.6778 30.75H33.3221V29.4325C33.3221 29.0592 33.1943 28.7447 32.9387 28.4891C32.683 28.2335 32.3701 28.1057 32 28.1057C31.6298 28.1057 31.3169 28.2335 31.0612 28.4891C30.8056 28.7447 30.6778 29.0592 30.6778 29.4325V30.75Z" fill="#F2CA50"/>
</svg>
