<svg width="37" height="35" viewBox="0 0 37 35" fill="none" xmlns="http://www.w3.org/2000/svg">
<path d="M22.2346 17.7884L21.1115 16.6654C21.2615 15.8371 21.0253 15.0926 20.4028 14.4317C19.7804 13.7708 19.0166 13.5154 18.1115 13.6654L16.9884 12.5423C17.2141 12.441 17.4455 12.3651 17.6827 12.3144C17.9198 12.2638 18.1795 12.2385 18.4615 12.2385C19.5961 12.2385 20.5592 12.6343 21.3509 13.426C22.1426 14.2176 22.5384 15.1807 22.5384 16.3154C22.5384 16.5974 22.5131 16.8602 22.4624 17.1038C22.4118 17.3474 22.3358 17.5756 22.2346 17.7884ZM25.4153 20.8999L24.3115 19.8654C24.9448 19.382 25.5073 18.8529 25.999 18.2779C26.4907 17.7029 26.9115 17.0487 27.2615 16.3154C26.4282 14.632 25.2323 13.2945 23.674 12.3029C22.1157 11.3112 20.3782 10.8154 18.4615 10.8154C17.9782 10.8154 17.5032 10.8487 17.0365 10.9154C16.5698 10.982 16.1115 11.082 15.6615 11.2154L14.4961 10.05C15.1282 9.79872 15.7737 9.61347 16.4327 9.49424C17.0916 9.37501 17.7679 9.31539 18.4615 9.31539C20.8051 9.31539 22.9185 9.96154 24.8019 11.2538C26.6852 12.5461 28.0589 14.2333 28.923 16.3154C28.5525 17.2089 28.074 18.0429 27.4874 18.8173C26.9009 19.5916 26.2102 20.2858 25.4153 20.8999ZM26.223 26.6845L22.1769 22.6692C21.6641 22.8589 21.0958 23.014 20.4721 23.1345C19.8484 23.2551 19.1782 23.3153 18.4615 23.3153C16.1115 23.3153 13.9981 22.6692 12.1211 21.3769C10.2442 20.0846 8.87051 18.3974 8 16.3154C8.36923 15.432 8.84616 14.608 9.43078 13.8432C10.0154 13.0785 10.659 12.4154 11.3616 11.8538L8.59232 9.05382L9.64614 8L27.2769 25.6307L26.223 26.6845ZM12.4154 12.9076C11.8872 13.3282 11.3734 13.8336 10.874 14.424C10.3746 15.0144 9.97048 15.6448 9.6615 16.3154C10.4948 17.9987 11.6907 19.3362 13.249 20.3279C14.8073 21.3195 16.5448 21.8154 18.4615 21.8154C18.9166 21.8154 19.3699 21.7769 19.8211 21.7C20.2724 21.623 20.6551 21.5436 20.9692 21.4615L19.7038 20.1653C19.5333 20.2346 19.3359 20.2897 19.1115 20.3307C18.8871 20.3717 18.6705 20.3922 18.4615 20.3922C17.3269 20.3922 16.3638 19.9964 15.5721 19.2048C14.7804 18.4131 14.3846 17.45 14.3846 16.3154C14.3846 16.1128 14.4051 15.9009 14.4461 15.6798C14.4872 15.4586 14.5423 15.2564 14.6115 15.073L12.4154 12.9076Z" fill="#D0C5AF"/>
</svg>
